<svg width="39" height="39" viewBox="0 0 39 39" fill="none" xmlns="http://www.w3.org/2000/svg">
<circle cx="19" cy="20" r="17" fill="white"/>
<path d="M28.1199 13.3125C28.715 13.9076 28.715 14.8723 28.1199 15.4671L17.8998 25.6875C17.3047 26.2823 16.3404 26.2823 15.7453 25.6875L10.8801 20.822C10.285 20.2272 10.285 19.2626 10.8801 18.6678C11.4749 18.0727 12.4395 18.0727 13.0343 18.6678L16.8224 22.4558L25.9654 13.3125C26.5605 12.7177 27.5251 12.7177 28.1199 13.3125ZM39 19.5C39 30.2786 30.2771 39 19.5 39C8.72138 39 0 30.2771 0 19.5C0 8.72138 8.72287 0 19.5 0C30.2786 0 39 8.72287 39 19.5ZM35.9531 19.5C35.9531 10.4055 28.5933 3.04688 19.5 3.04688C10.4055 3.04688 3.04688 10.4067 3.04688 19.5C3.04688 28.5945 10.4067 35.9531 19.5 35.9531C28.5945 35.9531 35.9531 28.5933 35.9531 19.5Z" fill="#0A3D80"/>
</svg>
