<svg width="63" height="59" viewBox="0 0 63 59" fill="none" xmlns="http://www.w3.org/2000/svg">
<path d="M53.1562 0.214844H9.84375C4.41575 0.214844 0 4.63059 0 10.0586V44.5117C0 49.9397 4.41575 54.3555 9.84375 54.3555H33.2227C34.1614 54.3555 35.0184 53.8215 35.4322 52.9784C35.8456 52.1358 35.7437 51.1308 35.1688 50.3886L28.7319 42.0695L46.5728 19.3765L58.0781 33.102V37.252C58.0781 38.6112 59.1798 39.7129 60.5391 39.7129C61.8983 39.7129 63 38.6112 63 37.252V10.0586C63 4.63059 58.5843 0.214844 53.1562 0.214844V0.214844ZM48.3978 13.8918C47.9215 13.3237 47.2154 12.9992 46.4733 13.0122C45.7316 13.0237 45.0352 13.3688 44.5771 13.9519L25.626 38.0561L19.1727 29.7168C18.7065 29.114 17.9879 28.7617 17.2266 28.7617C17.2256 28.7617 17.2242 28.7617 17.2232 28.7617C16.4604 28.7627 15.7409 29.1174 15.2761 29.7221L9.86009 36.7626C9.03145 37.8403 9.23284 39.3851 10.31 40.2137C11.3876 41.0429 12.9324 40.841 13.7611 39.7638L17.2323 35.2515L28.2066 49.4336H9.84375C7.12999 49.4336 4.92188 47.2255 4.92188 44.5117V10.0586C4.92188 7.34483 7.12999 5.13672 9.84375 5.13672H53.1562C55.87 5.13672 58.0781 7.34483 58.0781 10.0586V25.4404L48.3978 13.8918ZM17.2266 9.07422C13.1554 9.07422 9.84375 12.3859 9.84375 16.457C9.84375 20.5282 13.1554 23.8398 17.2266 23.8398C21.2977 23.8398 24.6094 20.5282 24.6094 16.457C24.6094 12.3859 21.2977 9.07422 17.2266 9.07422ZM17.2266 18.918C15.8697 18.918 14.7656 17.8139 14.7656 16.457C14.7656 15.1002 15.8697 13.9961 17.2266 13.9961C18.5834 13.9961 19.6875 15.1002 19.6875 16.457C19.6875 17.8139 18.5834 18.918 17.2266 18.918ZM63 47.0957C63 48.455 61.8983 49.5566 60.5391 49.5566H53.7715V56.3242C53.7715 57.6835 52.6698 58.7852 51.3105 58.7852C49.9513 58.7852 48.8496 57.6835 48.8496 56.3242V49.5566H42.082C40.7227 49.5566 39.6211 48.455 39.6211 47.0957C39.6211 45.7364 40.7227 44.6348 42.082 44.6348H48.8496V37.8672C48.8496 36.5079 49.9513 35.4062 51.3105 35.4062C52.6698 35.4062 53.7715 36.5079 53.7715 37.8672V44.6348H60.5391C61.8983 44.6348 63 45.7364 63 47.0957Z" fill="#B6B6B6"/>
</svg>
