<?xml version="1.0" standalone="no"?>
<!DOCTYPE svg PUBLIC "-//W3C//DTD SVG 20010904//EN"
 "http://www.w3.org/TR/2001/REC-SVG-20010904/DTD/svg10.dtd">
<svg version="1.0" xmlns="http://www.w3.org/2000/svg"
 width="97.000000pt" height="56.000000pt" viewBox="0 0 97.000000 56.000000"
 preserveAspectRatio="xMidYMid meet">

<g transform="translate(0.000000,56.000000) scale(0.100000,-0.100000)"
fill="#000000" stroke="none">
<path d="M354 508 c-44 -39 -64 -82 -64 -138 0 -42 27 -107 53 -128 12 -11 16
-7 21 25 8 49 12 64 21 86 11 26 -2 47 -29 47 -28 0 -40 -23 -26 -49 5 -10 6
-21 3 -25 -16 -16 -23 -2 -23 48 0 61 25 107 79 143 20 14 28 23 18 23 -9 0
-33 -15 -53 -32z"/>
<path d="M426 448 c-20 -28 -20 -48 -1 -75 14 -21 14 -23 -9 -38 -44 -29 -57
-115 -20 -129 11 -4 12 -2 4 14 -5 10 -10 28 -10 40 0 30 53 80 85 80 32 0 85
-50 85 -80 0 -12 -5 -31 -12 -43 -10 -20 -10 -21 5 -8 28 22 22 78 -12 112
-28 28 -29 30 -15 59 16 30 7 64 -20 82 -23 16 -65 8 -80 -14z"/>
<path d="M564 385 c-4 -8 -3 -23 1 -32 11 -25 15 -42 22 -90 4 -35 10 -42 32
-46 33 -7 35 -4 23 31 -8 22 -6 41 5 76 12 35 13 50 4 59 -8 8 -11 1 -11 -27
0 -31 -3 -37 -16 -32 -9 3 -18 6 -20 6 -2 0 1 8 7 19 7 10 9 26 6 35 -8 20
-46 21 -53 1z"/>
<path d="M485 265 c-21 -18 -32 -21 -42 -13 -8 6 -13 7 -13 0 0 -5 7 -15 16
-22 13 -11 20 -9 47 18 38 38 33 49 -8 17z"/>
<path d="M30 106 c0 -25 5 -46 10 -46 6 0 10 6 10 14 0 8 10 16 23 18 16 2 22
10 22 28 0 21 -5 26 -32 28 -33 3 -33 3 -33 -42z m50 14 c0 -5 -7 -10 -15 -10
-8 0 -15 5 -15 10 0 6 7 10 15 10 8 0 15 -4 15 -10z"/>
<path d="M190 105 c0 -25 5 -45 10 -45 6 0 10 20 10 45 0 25 -4 45 -10 45 -5
0 -10 -20 -10 -45z"/>
<path d="M220 105 c0 -25 5 -45 10 -45 6 0 10 20 10 45 0 25 -4 45 -10 45 -5
0 -10 -20 -10 -45z"/>
<path d="M332 105 c0 -39 2 -44 7 -20 3 17 13 30 21 30 8 0 18 -13 21 -30 6
-29 7 -29 8 -4 1 28 -22 55 -38 45 -5 -4 -12 2 -14 11 -3 10 -5 -4 -5 -32z"/>
<path d="M510 106 c0 -25 5 -46 10 -46 6 0 10 6 10 14 0 8 10 16 23 18 16 2
22 10 22 28 0 21 -5 26 -32 28 -33 3 -33 3 -33 -42z m50 14 c0 -5 -7 -10 -15
-10 -8 0 -15 5 -15 10 0 6 7 10 15 10 8 0 15 -4 15 -10z"/>
<path d="M830 105 c0 -25 5 -45 10 -45 6 0 10 20 10 45 0 25 -4 45 -10 45 -5
0 -10 -20 -10 -45z"/>
<path d="M287 133 c-6 -11 4 -73 12 -73 7 0 6 68 -2 76 -3 3 -7 2 -10 -3z"/>
<path d="M116 114 c-12 -12 -13 -20 -6 -35 13 -23 43 -25 60 -4 19 22 3 31
-19 11 -17 -15 -19 -15 -32 1 -12 15 -12 16 2 11 16 -6 39 8 39 24 0 14 -28 9
-44 -8z"/>
<path d="M410 115 c-19 -23 -3 -55 28 -54 21 1 22 2 7 6 -36 9 -41 23 -7 23
34 0 40 8 20 28 -16 16 -33 15 -48 -3z m40 -5 c0 -5 -9 -10 -21 -10 -11 0 -17
5 -14 10 3 6 13 10 21 10 8 0 14 -4 14 -10z"/>
<path d="M600 115 c-19 -23 -8 -50 23 -53 15 -2 27 1 27 7 0 6 -6 8 -14 5 -8
-3 -17 -1 -21 5 -4 7 4 11 19 11 28 0 33 9 14 28 -16 16 -33 15 -48 -3z m37
-11 c-3 -3 -12 -4 -19 -1 -8 3 -5 6 6 6 11 1 17 -2 13 -5z"/>
<path d="M682 121 c-8 -4 -12 -19 -10 -32 4 -33 53 -40 63 -9 11 36 -22 61
-53 41z m36 -29 c2 -7 -3 -12 -12 -12 -9 0 -16 7 -16 16 0 17 22 14 28 -4z"/>
<path d="M750 79 c0 -27 5 -49 10 -49 6 0 10 7 10 15 0 8 9 15 20 15 47 0 34
63 -14 67 -25 2 -26 0 -26 -48z m50 16 c0 -8 -7 -15 -15 -15 -8 0 -15 7 -15
15 0 8 7 15 15 15 8 0 15 -7 15 -15z"/>
<path d="M869 114 c-9 -11 -10 -20 -2 -32 11 -19 53 -29 53 -13 0 6 -6 8 -14
5 -8 -3 -17 -1 -21 5 -4 7 4 11 19 11 29 0 36 24 10 34 -23 9 -30 8 -45 -10z
m38 -10 c-3 -3 -12 -4 -19 -1 -8 3 -5 6 6 6 11 1 17 -2 13 -5z"/>
</g>
</svg>
