<svg xmlns="http://www.w3.org/2000/svg" width="106" height="84" viewBox="0 0 106 84">
  <g id="shot-text" transform="translate(-653 -479)">
    <g id="Group_1" data-name="Group 1">
      <g id="Group_209" data-name="Group 209" transform="translate(653 518)">
        <rect id="Rectangle_1" data-name="Rectangle 1" width="45" height="45" rx="5" fill="#0414ff"/>
        <rect id="Rectangle_2" data-name="Rectangle 2" width="45" height="45" rx="5" transform="translate(61)" fill="#0414ff"/>
        <path id="Path_1" data-name="Path 1" d="M27.123,29.727H17.877L16.119,35H10.512L20.039,9.406h4.887L34.506,35H28.9ZM19.3,25.455h6.4l-3.217-9.58Z" fill="#fff"/>
        <path id="Path_2" data-name="Path 2" d="M74.289,35V9.406h8.965q4.658,0,7.066,1.793a6.077,6.077,0,0,1,2.408,5.221,5.824,5.824,0,0,1-.967,3.322,5.6,5.6,0,0,1-2.689,2.092,5.362,5.362,0,0,1,3.094,1.986,5.842,5.842,0,0,1,1.143,3.656,6.754,6.754,0,0,1-2.355,5.59A10.6,10.6,0,0,1,84.238,35Zm5.273-11.145v6.908H84.08a4.353,4.353,0,0,0,2.9-.879,3.059,3.059,0,0,0,1.055-2.461q0-3.516-3.639-3.568Zm0-3.727h3.9q3.99-.07,3.99-3.182a2.9,2.9,0,0,0-1.02-2.5,5.227,5.227,0,0,0-3.182-.773H79.563Z" fill="#fff"/>
      </g>
    </g>
    <path id="_" d="M8.723.368C4.583.368,1.163,2.312.3,6.848L5.843,8.216A2.5,2.5,0,0,1,8.291,5.732,2.019,2.019,0,0,1,10.559,7.82c0,2.52-4.644,4-4.644,9.072h5.652c0-4.032,5.148-4.392,5.148-9.612C16.715,3.86,14.051.368,8.723.368Zm0,19.62a3.24,3.24,0,1,0,3.24,3.24A3.242,3.242,0,0,0,8.723,19.988Z" transform="translate(696.701 478.632)" fill="#fff"/>
  </g>
</svg>
