<svg width="76" height="76" viewBox="0 0 76 76" fill="none" xmlns="http://www.w3.org/2000/svg">
<g clip-path="url(#clip0)">
<path d="M19.3322 20.524L12.7479 21.0327C10.9157 21.1743 9.28399 22.1346 8.27076 23.6672L0.677204 35.152C-0.0912513 36.3143 -0.213414 37.7688 0.350198 39.043C0.91396 40.3171 2.07251 41.2051 3.44925 41.4184L9.47799 42.3521C10.8883 34.8679 14.2643 27.4021 19.3322 20.524Z" fill="#F4F4F4"/>
<path d="M33.6479 66.522L34.5818 72.5507C34.7951 73.9274 35.683 75.086 36.957 75.6496C37.4871 75.8841 38.0482 75.9999 38.6065 75.9999C39.3907 75.9999 40.1693 75.7715 40.8481 75.3226L52.3333 67.7292C53.8659 66.7158 54.8261 65.0839 54.9674 63.2521L55.4761 56.6677C48.5979 61.7358 41.1323 65.1118 33.6479 66.522Z" fill="#F4F4F4"/>
<path d="M31.3805 62.3433C31.5898 62.3433 31.8003 62.3261 32.0103 62.2911C35.1459 61.7668 38.168 60.8836 41.051 59.7276L16.2725 34.9491C15.1165 37.8319 14.2333 40.854 13.709 43.9898C13.5024 45.2258 13.917 46.485 14.803 47.3711L28.6289 61.1971C29.3646 61.9326 30.3575 62.3433 31.3805 62.3433Z" fill="#F4F4F4"/>
<path d="M69.9401 33.6955C76.0035 21.9729 76.2281 9.58498 75.9112 3.77518C75.8027 1.7845 74.2156 0.19742 72.2248 0.0889134C71.2788 0.0372575 70.1577 0 68.894 0C62.3976 0 52.1182 0.983985 42.3045 6.06006C34.5053 10.0941 24.2785 18.9767 18.2449 30.65C18.3161 30.7057 18.3857 30.7648 18.4513 30.8304L45.1699 57.5489C45.2355 57.6145 45.2944 57.684 45.3501 57.7552C57.0234 51.7215 65.906 41.4946 69.9401 33.6955ZM44.1893 16.0667C48.5297 11.7263 55.5925 11.7259 59.9332 16.0667C62.036 18.1693 63.1939 20.9651 63.1939 23.9388C63.1939 26.9124 62.036 29.7082 59.9332 31.8108C57.7632 33.9808 54.9118 35.066 52.0613 35.0663C49.21 35.0665 46.3599 33.9814 44.1893 31.8108C42.0866 29.7082 40.9285 26.9124 40.9285 23.9388C40.9285 20.9651 42.0866 18.1693 44.1893 16.0667Z" fill="#F4F4F4"/>
<path d="M47.338 28.662C49.9423 31.2664 54.1802 31.2665 56.7846 28.662C58.0461 27.4003 58.741 25.723 58.741 23.9388C58.741 22.1545 58.0461 20.4772 56.7846 19.2156C55.4825 17.9134 53.7719 17.2623 52.0613 17.2623C50.3508 17.2623 48.6402 17.9134 47.3381 19.2156C46.0766 20.4772 45.3816 22.1545 45.3816 23.9388C45.3816 25.723 46.0764 27.4005 47.338 28.662Z" fill="#F4F4F4"/>
<path d="M2.2718 62.6311C2.84165 62.6311 3.41151 62.4138 3.84613 61.9788L11.1156 54.7094C11.9851 53.8399 11.9851 52.4302 11.1156 51.5606C10.2462 50.6911 8.8363 50.6911 7.96676 51.5606L0.697326 58.83C-0.172221 59.6996 -0.172221 61.1093 0.697326 61.9788C1.1321 62.4136 1.70195 62.6311 2.2718 62.6311Z" fill="#F4F4F4"/>
<path d="M17.7776 58.2225C16.9082 57.3529 15.4983 57.3529 14.6288 58.2225L0.652648 72.1986C-0.216898 73.0682 -0.216898 74.4779 0.652648 75.3474C1.08742 75.7822 1.65727 75.9995 2.22712 75.9995C2.79698 75.9995 3.36683 75.7822 3.80145 75.3473L17.7774 61.3713C18.6471 60.5017 18.6471 59.092 17.7776 58.2225Z" fill="#F4F4F4"/>
<path d="M21.2906 64.8845L14.0213 72.1539C13.1518 73.0234 13.1518 74.4331 14.0213 75.3027C14.4561 75.7375 15.0259 75.9549 15.5956 75.9549C16.1653 75.9549 16.7353 75.7376 17.17 75.3027L24.4394 68.0333C25.3089 67.1637 25.3089 65.754 24.4394 64.8845C23.57 64.0149 22.1601 64.0149 21.2906 64.8845Z" fill="#F4F4F4"/>
</g>
<defs>
<clipPath id="clip0">
<rect width="76" height="76" fill="white"/>
</clipPath>
</defs>
</svg>
