<svg xmlns="http://www.w3.org/2000/svg" width="87" height="73.951" viewBox="0 0 87 73.951">
  <g id="user" transform="translate(0 -6.524)">
    <path id="Path_5" data-name="Path 5" d="M43.5,42.691c8.222,0,14.889-8.1,14.889-18.083S56.2,6.524,43.5,6.524s-14.889,8.1-14.889,18.084S35.278,42.691,43.5,42.691Z" fill="#fff"/>
    <path id="Path_6" data-name="Path 6" d="M71.589,69.572c-.275-17.4-2.548-22.356-19.935-25.494,0,0-2.448,3.119-8.153,3.119s-8.152-3.119-8.152-3.119c-17.2,3.1-19.609,7.988-19.926,24.928-.026,1.383-.038,1.456-.042,1.3,0,.3,0,.857,0,1.828,0,0,4.14,8.345,28.118,8.345S71.619,72.13,71.619,72.13c0-.623,0-1.057,0-1.352A10.913,10.913,0,0,1,71.589,69.572Z" fill="#fff"/>
    <path id="Path_7" data-name="Path 7" d="M64.161,39.463c6.678,0,12.092-6.576,12.092-14.687S74.476,10.088,64.161,10.088a17.239,17.239,0,0,0-4.512.535c2.382,4.392,2.709,9.726,2.709,13.984a24.8,24.8,0,0,1-3.714,13.235A10.358,10.358,0,0,0,64.161,39.463Z" fill="#fff"/>
    <path id="Path_8" data-name="Path 8" d="M86.974,61.295C86.75,47.164,84.9,43.138,70.783,40.589c0,0-1.988,2.533-6.621,2.533-.192,0-.377-.006-.56-.014a18.577,18.577,0,0,1,7.594,5.88c3.41,4.675,4.194,10.956,4.355,20.183,9.5-1.878,11.448-5.8,11.448-5.8,0-.511,0-.861,0-1.1A8.34,8.34,0,0,1,86.974,61.295Z" fill="#fff"/>
    <path id="Path_9" data-name="Path 9" d="M22.838,39.463a10.362,10.362,0,0,0,5.517-1.619,24.8,24.8,0,0,1-3.714-13.235c0-4.258.326-9.593,2.708-13.984a17.241,17.241,0,0,0-4.512-.535c-10.314,0-12.092,6.576-12.092,14.687S16.16,39.463,22.838,39.463Z" fill="#fff"/>
    <path id="Path_10" data-name="Path 10" d="M23.4,43.108c-.182.008-.368.014-.56.014-4.633,0-6.621-2.533-6.621-2.533C2.1,43.138.249,47.164.026,61.295A8.576,8.576,0,0,1,0,62.271c0,.239,0,.59,0,1.1,0,0,1.947,3.921,11.448,5.8.163-9.227.946-15.507,4.356-20.183A18.576,18.576,0,0,1,23.4,43.108Z" fill="#fff"/>
  </g>
</svg>
