<svg width="65" height="66" viewBox="0 0 65 66" fill="none" xmlns="http://www.w3.org/2000/svg">
<g clip-path="url(#clip0)">
<path d="M36.7493 13.3374H7.10818C3.19868 13.3374 0 16.5361 0 20.4456V44.4001C0 48.3096 3.19868 51.5083 7.10818 51.5083H36.7493C40.6588 51.5083 43.8575 48.3096 43.8575 44.4001V20.4456C43.8575 16.465 40.6588 13.3374 36.7493 13.3374Z" fill="#0A3D80"/>
<path d="M30.2047 30.5501H24.4672C24.2808 30.5501 24.1297 30.399 24.1297 30.2126V24.4751C24.1297 23.5432 23.3741 22.7876 22.4422 22.7876C21.5103 22.7876 20.7547 23.5432 20.7547 24.4751V30.2126C20.7547 30.399 20.6036 30.5501 20.4172 30.5501H14.6797C13.7478 30.5501 12.9922 31.3057 12.9922 32.2376C12.9922 33.1695 13.7478 33.9251 14.6797 33.9251H20.4172C20.6036 33.9251 20.7547 34.0762 20.7547 34.2626V40.0001C20.7547 40.932 21.5103 41.6876 22.4422 41.6876C23.3741 41.6876 24.1297 40.932 24.1297 40.0001V34.2626C24.1297 34.0762 24.2808 33.9251 24.4672 33.9251H30.2047C31.1366 33.9251 31.8922 33.1695 31.8922 32.2376C31.8922 31.3057 31.1366 30.5501 30.2047 30.5501Z" fill="white"/>
<path d="M59.7073 17.6521C59.2808 17.7232 58.8543 17.9364 58.4989 18.1497L47.4102 24.547V41.038L58.57 47.4354C60.6314 48.6437 63.1903 47.9329 64.3987 45.8716C64.7541 45.2318 64.9674 44.521 64.9674 43.7391V21.7748C64.9674 19.1448 62.4795 17.0124 59.7073 17.6521Z" fill="#0A3D80"/>
</g>
<defs>
<clipPath id="clip0">
<rect width="64.9688" height="64.9688" fill="white" transform="translate(0 0.34375)"/>
</clipPath>
</defs>
</svg>
