<svg width="36" height="25" viewBox="0 0 36 25" fill="none" xmlns="http://www.w3.org/2000/svg">
<path d="M17.0139 19.4615V21.1528C17.0139 21.4034 16.8328 21.6948 16.6081 21.7967C15.7371 22.1916 13.3615 23 8.50696 23C3.65242 23 1.27676 22.1916 0.405801 21.7967C0.181087 21.6948 0 21.4034 0 21.1528V19.4615C0 16.9272 1.89351 14.8246 4.30965 14.5431C4.38305 14.5345 4.49192 14.5665 4.55176 14.6107C5.66578 15.4326 7.02963 15.9231 8.507 15.9231C9.98441 15.9231 11.3482 15.4326 12.4622 14.6107C12.5221 14.5665 12.631 14.5345 12.7044 14.5431C15.1204 14.8246 17.0139 16.9272 17.0139 19.4615ZM3.47223 9.02308C3.47223 6.18944 5.72636 3.89231 8.50696 3.89231C11.2876 3.89231 13.5417 6.18944 13.5417 9.02308C13.5417 11.8567 11.2876 14.1538 8.50696 14.1538C5.72636 14.1538 3.47223 11.8567 3.47223 9.02308ZM6.1248 11.0594C6.35385 11.8312 7.33494 12.4113 8.5108 12.4113C9.68666 12.4113 10.6678 11.8312 10.8968 11.0594H6.1248ZM23.9584 0H15.625C15.0521 0 14.5834 0.477692 14.5834 1.06154V6.026C14.5834 6.60402 15.0474 7.07692 15.6146 7.07692H15.625V8.49231C15.625 8.78388 15.9517 8.95035 16.1806 8.77538L18.3102 7.14769C18.3612 7.10877 18.4549 7.07692 18.5186 7.07692H23.9584C24.5313 7.07692 25 6.59923 25 6.01538V1.06154C25 0.477692 24.5313 0 23.9584 0Z" fill="#0414FF"/>
<path d="M24.4305 22.5385V23.715C24.4305 23.8894 24.5537 24.092 24.7065 24.1629C25.2988 24.4376 26.9142 25 30.2153 25C33.5164 25 35.1318 24.4376 35.7241 24.1629C35.8769 24.092 36 23.8894 36 23.715V22.5385C36 20.7754 34.7124 19.3128 33.0694 19.1169C33.0195 19.111 32.9455 19.1332 32.9048 19.164C32.1473 19.7357 31.2199 20.0769 30.2152 20.0769C29.2106 20.0769 28.2832 19.7357 27.5257 19.164C27.485 19.1332 27.4109 19.111 27.361 19.1169C25.7181 19.3128 24.4305 20.7754 24.4305 22.5385ZM33.6389 15.2769C33.6389 13.3057 32.1061 11.7077 30.2153 11.7077C28.3245 11.7077 26.7917 13.3057 26.7917 15.2769C26.7917 17.2481 28.3245 18.8462 30.2153 18.8462C32.1061 18.8462 33.6389 17.2481 33.6389 15.2769ZM31.8351 16.6935C31.6794 17.2304 31.0122 17.6339 30.2127 17.6339C29.4131 17.6339 28.7459 17.2304 28.5902 16.6935H31.8351ZM19.7083 9H25.375C25.7646 9 26.0833 9.33231 26.0833 9.73846V13.192C26.0833 13.5941 25.7678 13.9231 25.3821 13.9231H25.375V14.9077C25.375 15.1105 25.1529 15.2263 24.9972 15.1046L23.549 13.9723C23.5144 13.9452 23.4506 13.9231 23.4074 13.9231H19.7083C19.3187 13.9231 19 13.5908 19 13.1846V9.73846C19 9.33231 19.3187 9 19.7083 9Z" fill="#0414FF"/>
</svg>
