<svg width="18" height="14" viewBox="0 0 18 14" fill="none" xmlns="http://www.w3.org/2000/svg">
<path d="M8.99806 0.945312C7.83547 0.945312 6.88965 1.89113 6.88965 3.05369C6.88965 4.21628 7.83547 5.16209 8.99806 5.16209C10.1606 5.16209 11.1064 4.21628 11.1064 3.05369C11.1064 1.89113 10.1606 0.945312 8.99806 0.945312ZM8.99806 4.44497C8.23091 4.44497 7.60677 3.82084 7.60677 3.05369C7.60677 2.28653 8.23091 1.66244 8.99806 1.66244C9.76521 1.66244 10.3893 2.28657 10.3893 3.05369C10.3893 3.82084 9.76521 4.44497 8.99806 4.44497Z" fill="black"/>
<path d="M3.95039 3.08984C2.99501 3.08984 2.21777 3.86708 2.21777 4.82246C2.21777 5.77784 2.99501 6.55508 3.95039 6.55508C4.90577 6.55508 5.68301 5.77784 5.68301 4.82246C5.68301 3.86708 4.90574 3.08984 3.95039 3.08984ZM3.95039 5.83793C3.39046 5.83793 2.93493 5.3824 2.93493 4.82246C2.93493 4.26253 3.39046 3.807 3.95039 3.807C4.51033 3.807 4.96586 4.26256 4.96586 4.82246C4.96586 5.38237 4.51033 5.83793 3.95039 5.83793Z" fill="black"/>
<path d="M14.051 3.08984C13.0956 3.08984 12.3184 3.86708 12.3184 4.82246C12.3184 5.77784 13.0956 6.55508 14.051 6.55508C15.0064 6.55508 15.7836 5.77784 15.7836 4.82246C15.7836 3.86708 15.0063 3.08984 14.051 3.08984ZM14.051 5.83793C13.491 5.83793 13.0355 5.3824 13.0355 4.82246C13.0355 4.26253 13.491 3.807 14.051 3.807C14.6109 3.807 15.0664 4.26256 15.0664 4.82246C15.0664 5.38237 14.6109 5.83793 14.051 5.83793Z" fill="black"/>
<path d="M17.6416 12.3361H16.6334V9.6961C16.6334 8.27226 15.475 7.11385 14.0511 7.11385C13.2593 7.11385 12.55 7.47238 12.076 8.03527C11.7061 6.68269 10.4665 5.68555 8.99818 5.68555C7.53113 5.68555 6.29267 6.68332 5.9237 8.03661C5.45036 7.47294 4.74153 7.11385 3.9503 7.11385C2.52646 7.11385 1.36801 8.27226 1.36801 9.6961V12.3361H0.358562C0.160525 12.3361 0 12.4966 0 12.6947C0 12.8927 0.160525 13.0532 0.358562 13.0532H17.6416C17.8396 13.0532 18.0002 12.8927 18.0002 12.6947C18.0002 12.4966 17.8396 12.3361 17.6416 12.3361ZM5.81159 12.3361H2.08514V9.6961C2.08514 8.6677 2.92183 7.83101 3.95026 7.83101C4.97659 7.83101 5.81155 8.6677 5.81155 9.6961V12.3361H5.81159ZM11.4689 12.3361H6.52871V8.87597C6.52871 7.51218 7.6365 6.40267 8.99818 6.40267C10.362 6.40267 11.4715 7.51218 11.4715 8.87597L11.4689 12.3361ZM15.9163 12.3361H12.1886V9.59861C12.2395 8.61532 13.0555 7.83098 14.0512 7.83098C15.0796 7.83098 15.9163 8.66767 15.9163 9.69607V12.3361Z" fill="black"/>
<path d="M7.28044 9.58252C7.0824 9.58252 6.92188 9.74304 6.92188 9.94108V11.6616C6.92188 11.8596 7.0824 12.0202 7.28044 12.0202C7.47847 12.0202 7.639 11.8596 7.639 11.6616V9.94112C7.639 9.74311 7.47847 9.58252 7.28044 9.58252Z" fill="black"/>
<path d="M7.28044 8.43652C7.0824 8.43652 6.92188 8.59705 6.92188 8.79509V8.87155C6.92188 9.06959 7.0824 9.23011 7.28044 9.23011C7.47847 9.23011 7.639 9.06959 7.639 8.87155V8.79509C7.639 8.59705 7.47847 8.43652 7.28044 8.43652Z" fill="black"/>
</svg>
