<svg width="10" height="10" viewBox="0 0 10 10" fill="none" xmlns="http://www.w3.org/2000/svg">
<path d="M5 0C2.23859 0 0 2.23859 0 5C0 7.76141 2.23859 10 5 10C7.76141 10 10 7.76144 10 5C10 2.23857 7.76141 0 5 0ZM5.83333 8.20348C5.83333 8.39209 5.68041 8.545 5.4918 8.545H4.55483C4.36622 8.545 4.2133 8.39209 4.2133 8.20348V4.40167C4.2133 4.21307 4.3662 4.06015 4.55483 4.06015H5.4918C5.68041 4.06015 5.83333 4.21304 5.83333 4.40167V8.20348ZM5 3.41304C4.53176 3.41304 4.15217 3.03346 4.15217 2.56522C4.15217 2.09698 4.53176 1.71739 5 1.71739C5.46824 1.71739 5.84783 2.09698 5.84783 2.56522C5.84783 3.03346 5.46824 3.41304 5 3.41304Z" fill="black"/>
</svg>
