<svg width="179" height="162" viewBox="0 0 179 162" fill="none" xmlns="http://www.w3.org/2000/svg">
<path d="M114.208 37.2699C124.484 37.2699 132.843 28.9099 132.843 18.6347C132.843 8.3595 124.484 0 114.208 0C103.933 0 95.5735 8.3595 95.5735 18.6347C95.5735 28.9099 103.933 37.2699 114.208 37.2699ZM114.208 8.93799C119.556 8.93799 123.905 13.2883 123.905 18.6347C123.905 23.9821 119.555 28.3319 114.208 28.3319C108.861 28.3319 104.511 23.9816 104.511 18.6347C104.512 13.2878 108.862 8.93799 114.208 8.93799ZM118.241 111.72L98.7033 152.611H103.689C106.158 152.611 108.158 154.612 108.158 157.08C108.158 159.549 106.158 161.549 103.689 161.549H91.6393C91.6298 161.549 91.6209 161.551 91.6115 161.551C91.3721 161.551 91.1313 161.525 90.8915 161.486C90.8229 161.475 90.7539 161.466 90.6869 161.451C90.6194 161.438 90.5523 161.418 90.4853 161.4C90.3964 161.376 90.3075 161.353 90.2206 161.325C90.1625 161.306 90.1049 161.283 90.0468 161.261C89.953 161.226 89.8601 161.189 89.7692 161.148C89.7424 161.136 89.7146 161.127 89.6878 161.114C89.6541 161.098 89.6233 161.078 89.5905 161.062C89.522 161.027 89.4544 160.99 89.3879 160.952C89.3214 160.914 89.2563 160.874 89.1928 160.833C89.1386 160.798 89.086 160.762 89.0339 160.725C88.9628 160.674 88.8933 160.623 88.8258 160.57C88.7846 160.537 88.7444 160.502 88.7041 160.468C88.6326 160.406 88.5631 160.344 88.4961 160.279C88.4613 160.245 88.4281 160.209 88.3943 160.174C88.3287 160.106 88.2652 160.038 88.2046 159.966C88.1703 159.925 88.1381 159.883 88.1053 159.842C88.0512 159.773 87.998 159.704 87.9484 159.632C87.9121 159.58 87.8789 159.527 87.8451 159.474C87.8044 159.409 87.7637 159.345 87.7264 159.278C87.6897 159.213 87.6559 159.147 87.6226 159.08C87.5933 159.022 87.564 158.963 87.5372 158.903C87.504 158.829 87.4742 158.753 87.4449 158.677C87.423 158.619 87.4012 158.562 87.3813 158.503C87.3555 158.426 87.3326 158.348 87.3108 158.269C87.2934 158.206 87.2765 158.142 87.2616 158.078C87.2453 158.006 87.2314 157.933 87.2185 157.86C87.205 157.784 87.1931 157.708 87.1832 157.631C87.1752 157.568 87.1693 157.505 87.1643 157.441C87.1569 157.351 87.1524 157.261 87.1504 157.171C87.1499 157.14 87.146 157.111 87.146 157.081C87.146 157.054 87.1494 157.029 87.1499 157.002C87.1514 156.909 87.1564 156.818 87.1638 156.725C87.1688 156.665 87.1738 156.605 87.1807 156.545C87.1906 156.465 87.2031 156.385 87.2175 156.304C87.2299 156.232 87.2433 156.161 87.2597 156.09C87.2746 156.026 87.2914 155.962 87.3093 155.897C87.3327 155.812 87.3575 155.728 87.3858 155.645C87.4032 155.594 87.422 155.544 87.4409 155.494C87.4762 155.4 87.5144 155.309 87.5556 155.219C87.5655 155.198 87.5725 155.176 87.5824 155.155L108.284 111.827L93.5461 104.451C91.3389 103.347 90.4451 100.662 91.5494 98.455C92.6542 96.2478 95.3391 95.354 97.5458 96.4583L116.208 105.798C118.387 106.888 119.291 109.522 118.241 111.72ZM176.108 42.1357C174.705 43.0394 170.806 45.6121 166.678 48.3357C163.307 50.5597 159.675 52.9571 156.781 54.8549C151.481 58.3318 147.849 59.8379 142.668 59.8379C139.729 59.8379 136.291 59.3527 131.767 58.4689C131.758 58.4669 131.749 58.4639 131.739 58.4619C131.731 58.4599 131.723 58.4594 131.716 58.4579L80.7454 47.8699C69.702 45.7129 68.1011 46.4344 62.3758 50.1908C59.4958 52.0802 55.8818 54.4642 52.5251 56.6793C48.1832 59.5444 44.4342 62.0182 42.9858 62.9508C42.2375 63.4324 41.3993 63.6628 40.5706 63.6628C39.1017 63.6628 37.6632 62.9394 36.8087 61.6126C35.4729 59.5375 36.0718 56.7721 38.1469 55.4359C39.5531 54.5307 43.463 51.9506 47.6023 49.219C50.9659 46.9994 54.5873 44.61 57.4733 42.7171C65.7802 37.2675 69.988 36.6597 82.4868 39.1032C82.5042 39.1067 82.521 39.1102 82.5384 39.1136L133.486 49.6972C144.549 51.8592 146.149 51.1387 151.878 47.3808C154.766 45.4869 158.391 43.0945 161.755 40.8744C166.084 38.0182 169.822 35.5509 171.268 34.6203C173.342 33.2836 176.108 33.8819 177.445 35.9575C178.782 38.0336 178.183 40.7995 176.108 42.1357ZM62.0674 157.08C62.0674 159.549 60.0668 161.549 57.5984 161.549H45.5336C45.5287 161.549 45.5237 161.55 45.5187 161.55C45.4879 161.55 45.4572 161.545 45.4264 161.544C45.2878 161.541 45.1503 161.534 45.0147 161.518C44.9541 161.511 44.8941 161.5 44.834 161.49C44.7183 161.472 44.6036 161.451 44.4914 161.424C44.4352 161.411 44.3796 161.396 44.3235 161.381C44.1885 161.344 44.0559 161.299 43.9263 161.249C43.895 161.238 43.8632 161.228 43.8319 161.215C43.6641 161.147 43.5017 161.068 43.3448 160.98C43.3374 160.976 43.3299 160.973 43.3225 160.969C43.2867 160.949 43.2544 160.925 43.2192 160.904C43.1377 160.854 43.0563 160.805 42.9779 160.75C42.9212 160.711 42.8676 160.669 42.813 160.628C42.7539 160.582 42.6948 160.538 42.6377 160.49C42.5756 160.437 42.517 160.382 42.4585 160.327C42.4133 160.285 42.3681 160.242 42.3249 160.198C42.2653 160.137 42.2097 160.074 42.1541 160.01C42.1148 159.965 42.0751 159.92 42.0374 159.873C41.9867 159.81 41.9391 159.744 41.8919 159.678C41.8537 159.625 41.8159 159.572 41.7802 159.517C41.7404 159.456 41.7037 159.394 41.667 159.331C41.6292 159.266 41.592 159.201 41.5572 159.134C41.5279 159.078 41.5016 159.021 41.4748 158.964C41.4395 158.888 41.4053 158.812 41.374 158.734C41.3526 158.681 41.3343 158.627 41.3149 158.573C41.2856 158.491 41.2573 158.409 41.233 158.325C41.2166 158.268 41.2027 158.21 41.1888 158.152C41.1689 158.071 41.149 157.991 41.1336 157.909C41.1202 157.837 41.1108 157.766 41.1009 157.694C41.0914 157.624 41.0805 157.556 41.0741 157.485C41.0656 157.392 41.0626 157.297 41.0597 157.203C41.0587 157.161 41.0532 157.121 41.0532 157.079C41.0532 157.069 41.0547 157.06 41.0547 157.049C41.0552 156.942 41.0626 156.834 41.0711 156.728C41.0741 156.686 41.0751 156.644 41.0795 156.603C41.09 156.505 41.1073 156.407 41.1242 156.309C41.1327 156.259 41.1386 156.209 41.149 156.16C41.1644 156.086 41.1863 156.013 41.2057 155.939C41.2245 155.868 41.2409 155.796 41.2632 155.726C41.2791 155.676 41.2995 155.627 41.3174 155.578C41.3501 155.486 41.3824 155.394 41.4207 155.306C41.438 155.266 41.4589 155.228 41.4773 155.188C41.522 155.093 41.5676 154.997 41.6188 154.906C41.6237 154.896 41.6272 154.887 41.6327 154.878L93.9408 62.4363C95.1564 60.2887 97.8835 59.532 100.031 60.7481C102.179 61.9636 102.935 64.6902 101.72 66.8388L53.186 152.61H57.5979C60.0668 152.611 62.0674 154.612 62.0674 157.08ZM61.6508 87.5571H12.97C10.5016 87.5571 8.50103 85.5564 8.50103 83.0881C8.50103 80.6197 10.5016 78.6191 12.97 78.6191H61.6513C64.1197 78.6191 66.1203 80.6197 66.1203 83.0881C66.1203 85.5564 64.1192 87.5571 61.6508 87.5571ZM47.5293 107.947H33.1366C30.6682 107.947 28.6676 105.946 28.6676 103.478C28.6676 101.009 30.6682 99.0086 33.1366 99.0086H47.5293C49.9977 99.0086 51.9983 101.009 51.9983 103.478C51.9983 105.946 49.9972 107.947 47.5293 107.947ZM9.69673 104.89C9.69673 107.359 7.69611 109.359 5.22773 109.359H4.469C2.00062 109.359 0 107.359 0 104.89C0 102.422 2.00062 100.421 4.469 100.421H5.22773C7.69611 100.421 9.69673 102.422 9.69673 104.89Z" fill="white" fill-opacity="0.2"/>
</svg>
