<svg width="31" height="28" viewBox="0 0 31 28" fill="none" xmlns="http://www.w3.org/2000/svg">
<path d="M19.7859 6.35608C21.5383 6.35608 22.9639 4.93035 22.9639 3.178C22.9639 1.42564 21.5383 0 19.7859 0C18.0335 0 16.6079 1.42564 16.6079 3.178C16.6079 4.93035 18.0336 6.35608 19.7859 6.35608ZM19.7859 1.5243C20.6978 1.5243 21.4396 2.26621 21.4396 3.178C21.4396 4.08995 20.6977 4.83178 19.7859 4.83178C18.874 4.83178 18.1322 4.08987 18.1322 3.178C18.1322 2.26613 18.8741 1.5243 19.7859 1.5243ZM20.4736 19.053L17.1416 26.0266H17.9919C18.4129 26.0266 18.7541 26.3678 18.7541 26.7887C18.7541 27.2097 18.4129 27.5509 17.9919 27.5509H15.9369C15.9353 27.5509 15.9338 27.5512 15.9322 27.5512C15.8914 27.5512 15.8503 27.5467 15.8094 27.54C15.7977 27.5382 15.7859 27.5367 15.7745 27.5342C15.763 27.5318 15.7515 27.5284 15.7401 27.5254C15.725 27.5214 15.7098 27.5174 15.695 27.5127C15.6851 27.5094 15.6752 27.5055 15.6653 27.5018C15.6493 27.4958 15.6335 27.4894 15.618 27.4824C15.6134 27.4803 15.6087 27.4788 15.6041 27.4767C15.5984 27.474 15.5931 27.4706 15.5875 27.4677C15.5758 27.4618 15.5643 27.4555 15.553 27.449C15.5416 27.4425 15.5305 27.4358 15.5197 27.4288C15.5105 27.4228 15.5015 27.4167 15.4926 27.4103C15.4805 27.4017 15.4686 27.393 15.4571 27.3838C15.4501 27.3782 15.4432 27.3723 15.4364 27.3664C15.4242 27.3559 15.4123 27.3454 15.4009 27.3342C15.3949 27.3284 15.3893 27.3223 15.3835 27.3164C15.3723 27.3048 15.3615 27.2931 15.3512 27.2808C15.3453 27.2739 15.3398 27.2668 15.3342 27.2597C15.325 27.248 15.3159 27.2362 15.3075 27.2239C15.3013 27.2151 15.2956 27.206 15.2898 27.197C15.2829 27.1859 15.276 27.1749 15.2696 27.1635C15.2633 27.1525 15.2576 27.1412 15.2519 27.1298C15.2469 27.1198 15.2419 27.1099 15.2373 27.0996C15.2317 27.087 15.2266 27.074 15.2216 27.061C15.2179 27.0512 15.2141 27.0414 15.2108 27.0314C15.2064 27.0183 15.2025 27.0049 15.1987 26.9916C15.1958 26.9807 15.1929 26.9699 15.1903 26.959C15.1876 26.9466 15.1852 26.9342 15.183 26.9218C15.1807 26.9088 15.1787 26.8958 15.177 26.8827C15.1756 26.8719 15.1746 26.8611 15.1737 26.8503C15.1725 26.8349 15.1717 26.8196 15.1714 26.8041C15.1713 26.799 15.1706 26.794 15.1706 26.7888C15.1706 26.7843 15.1712 26.7799 15.1713 26.7754C15.1715 26.7596 15.1724 26.7439 15.1737 26.7281C15.1745 26.7179 15.1754 26.7076 15.1765 26.6975C15.1782 26.6837 15.1804 26.6701 15.1828 26.6564C15.1849 26.6441 15.1872 26.632 15.19 26.6199C15.1925 26.6089 15.1954 26.5979 15.1985 26.587C15.2025 26.5725 15.2067 26.5581 15.2115 26.544C15.2145 26.5353 15.2177 26.5268 15.2209 26.5182C15.2269 26.5023 15.2335 26.4867 15.2405 26.4713C15.2422 26.4677 15.2434 26.464 15.2451 26.4603L18.7755 19.0711L16.2621 17.8133C15.8857 17.6249 15.7333 17.167 15.9216 16.7907C16.11 16.4143 16.5679 16.2618 16.9442 16.4502L20.1269 18.0429C20.4986 18.2289 20.6527 18.6781 20.4736 19.053ZM30.3423 7.18589C30.103 7.34002 29.4381 7.77876 28.7342 8.24325C28.1593 8.62255 27.5398 9.0314 27.0463 9.35506C26.1424 9.94801 25.523 10.2049 24.6394 10.2049C24.1382 10.2049 23.5519 10.1221 22.7804 9.97138C22.7788 9.97104 22.7773 9.97054 22.7756 9.9702C22.7743 9.96986 22.7729 9.96977 22.7716 9.96952L14.079 8.16382C12.1957 7.79595 11.9227 7.919 10.9463 8.55963C10.4551 8.88185 9.83878 9.28841 9.26632 9.66618C8.52585 10.1548 7.88649 10.5767 7.63947 10.7357C7.51185 10.8179 7.3689 10.8572 7.22757 10.8572C6.97707 10.8572 6.73175 10.7338 6.586 10.5075C6.35821 10.1536 6.46033 9.68202 6.81423 9.45414C7.05405 9.29976 7.72085 8.85974 8.42677 8.3939C9.00041 8.01537 9.61801 7.60787 10.1102 7.28506C11.5269 6.35566 12.2445 6.252 14.376 6.66873C14.379 6.66932 14.3819 6.66992 14.3848 6.67051L23.0735 8.47545C24.9603 8.84416 25.233 8.72129 26.2102 8.0804C26.7026 7.75742 27.3209 7.34942 27.8946 6.9708C28.6328 6.4837 29.2704 6.06291 29.5169 5.90421C29.8706 5.67624 30.3424 5.77829 30.5703 6.13226C30.7983 6.48632 30.6962 6.95801 30.3423 7.18589ZM10.8937 26.7887C10.8937 27.2097 10.5525 27.5509 10.1315 27.5509H8.07398C8.07313 27.5509 8.07228 27.5511 8.07144 27.5511C8.06619 27.5511 8.06094 27.5501 8.05569 27.55C8.03206 27.5495 8.0086 27.5483 7.98548 27.5456C7.97515 27.5444 7.9649 27.5425 7.95466 27.5408C7.93493 27.5378 7.91537 27.5341 7.89623 27.5296C7.88666 27.5273 7.87717 27.5248 7.8676 27.5222C7.84457 27.5158 7.82196 27.5083 7.79986 27.4997C7.79452 27.4978 7.7891 27.4961 7.78377 27.4939C7.75514 27.4822 7.72745 27.4687 7.70069 27.4538C7.69942 27.4531 7.69815 27.4526 7.69688 27.452C7.69078 27.4485 7.68528 27.4444 7.67927 27.4408C7.66538 27.4323 7.65149 27.424 7.63811 27.4146C7.62846 27.4079 7.61931 27.4007 7.61 27.3937C7.59992 27.3859 7.58984 27.3784 7.5801 27.3703C7.56952 27.3613 7.55953 27.3518 7.54953 27.3424C7.54183 27.3352 7.53412 27.328 7.52675 27.3205C7.51659 27.3101 7.50711 27.2993 7.49762 27.2884C7.49093 27.2807 7.48416 27.273 7.47772 27.2651C7.46908 27.2542 7.46095 27.2431 7.45291 27.2318C7.44639 27.2227 7.43995 27.2137 7.43386 27.2043C7.42708 27.1939 7.42081 27.1833 7.41455 27.1725C7.40811 27.1615 7.40176 27.1504 7.39583 27.1391C7.39084 27.1295 7.38635 27.1197 7.38178 27.1099C7.37576 27.0971 7.36992 27.0841 7.36458 27.0708C7.36094 27.0618 7.35781 27.0525 7.35451 27.0434C7.34951 27.0294 7.34468 27.0154 7.34053 27.001C7.33774 26.9912 7.33537 26.9814 7.333 26.9715C7.32961 26.9578 7.32622 26.944 7.3236 26.9301C7.32131 26.9179 7.3197 26.9057 7.31801 26.8934C7.3164 26.8815 7.31454 26.8699 7.31344 26.8578C7.312 26.8418 7.31149 26.8257 7.31098 26.8097C7.31081 26.8025 7.30988 26.7957 7.30988 26.7886C7.30988 26.7868 7.31013 26.7853 7.31013 26.7835C7.31022 26.7652 7.31149 26.7468 7.31293 26.7286C7.31344 26.7216 7.3136 26.7144 7.31437 26.7074C7.31614 26.6907 7.31911 26.6739 7.32199 26.6572C7.32343 26.6488 7.32444 26.6402 7.32622 26.6318C7.32885 26.6192 7.33257 26.6067 7.33588 26.5941C7.33909 26.5819 7.34189 26.5697 7.3457 26.5577C7.34841 26.5493 7.35188 26.541 7.35493 26.5325C7.36052 26.5168 7.36602 26.5012 7.37254 26.4861C7.37551 26.4793 7.37907 26.4728 7.3822 26.4661C7.38982 26.4498 7.39761 26.4335 7.40633 26.4179C7.40718 26.4163 7.40777 26.4148 7.4087 26.4132L16.3294 10.648C16.5367 10.2817 17.0018 10.1527 17.3681 10.3601C17.7344 10.5674 17.8634 11.0324 17.6561 11.3988L9.37903 26.0264H10.1314C10.5525 26.0266 10.8937 26.3678 10.8937 26.7887ZM10.8226 14.9321H2.52052C2.09956 14.9321 1.75837 14.5909 1.75837 14.17C1.75837 13.749 2.09956 13.4078 2.52052 13.4078H10.8227C11.2437 13.4078 11.5849 13.749 11.5849 14.17C11.5849 14.5909 11.2436 14.9321 10.8226 14.9321ZM8.41432 18.4094H5.95977C5.53881 18.4094 5.19762 18.0682 5.19762 17.6473C5.19762 17.2263 5.53881 16.8851 5.95977 16.8851H8.41432C8.83528 16.8851 9.17647 17.2263 9.17647 17.6473C9.17647 18.0682 8.8352 18.4094 8.41432 18.4094ZM1.96229 17.8882C1.96229 18.3091 1.6211 18.6503 1.20014 18.6503H1.07074C0.649783 18.6503 0.308594 18.3091 0.308594 17.8882C0.308594 17.4672 0.649783 17.126 1.07074 17.126H1.20014C1.6211 17.126 1.96229 17.4672 1.96229 17.8882Z" fill="white"/>
</svg>
