<svg width="26" height="26" viewBox="0 0 26 26" fill="none" xmlns="http://www.w3.org/2000/svg">
<path fill-rule="evenodd" clip-rule="evenodd" d="M12.9997 1.33301C19.443 1.33301 24.6663 6.55636 24.6663 12.9997C24.6663 19.443 19.443 24.6663 12.9997 24.6663C6.55636 24.6663 1.33301 19.443 1.33301 12.9997C1.33301 6.55636 6.55636 1.33301 12.9997 1.33301Z" stroke="white" stroke-width="1.5" stroke-linecap="round" stroke-linejoin="round"/>
<path fill-rule="evenodd" clip-rule="evenodd" d="M16.5581 13.5449C15.7076 14.4619 13.3929 16.0135 12.2088 16.5117C12.0198 16.591 11.5379 16.759 11.4341 16.7614C11.2136 16.7684 11.0013 16.6447 10.8986 16.4464C10.8589 16.3694 10.7423 15.8665 10.7049 15.6425C10.5941 14.9612 10.5369 13.903 10.5381 12.839C10.5369 11.7225 10.5988 10.6142 10.7224 9.93988C10.7551 9.75788 10.8508 9.33905 10.8788 9.27138C10.9313 9.14538 11.0269 9.04621 11.1424 8.98438C11.2311 8.93655 11.3326 8.91088 11.4341 8.91438C11.5379 8.91671 11.9603 9.06488 12.1049 9.12205C13.2459 9.56538 15.6598 11.173 16.5464 12.118C16.6258 12.2032 16.8439 12.4319 16.8801 12.4785C16.9629 12.5835 17.0038 12.7107 17.0038 12.839C17.0038 12.958 16.9676 13.0794 16.8929 13.1809C16.8544 13.2334 16.6316 13.4667 16.5581 13.5449Z" stroke="white" stroke-width="1.5" stroke-linecap="round" stroke-linejoin="round"/>
</svg>
