<svg width="24" height="24" viewBox="0 0 24 24" fill="none" xmlns="http://www.w3.org/2000/svg">
<g clip-path="url(#clip0_1525_345)">
<path d="M18.3969 1.3692V8.40627H19.1966V1.3692L19.7164 1.88898L20.2762 1.32922L19.0767 0.129716C18.9167 -0.0302177 18.6768 -0.0302177 18.5169 0.129716L17.3174 1.32922L17.8772 1.88898L18.3969 1.3692Z" fill="white"/>
<path d="M21.9956 9.36627V16.4033H22.7952V9.36627L23.315 9.88605L23.8748 9.32629L22.6753 8.12679C22.5153 7.96685 22.2754 7.96685 22.1155 8.12679L20.916 9.32629L21.4758 9.88605L21.9956 9.36627Z" fill="white"/>
<path d="M4.80318 1.3692V8.40627H5.60285V1.3692L6.12263 1.88898L6.6824 1.32922L5.4829 0.129716C5.32297 -0.0302177 5.08307 -0.0302177 4.92313 0.129716L3.72363 1.32922L4.2834 1.88898L4.80318 1.3692Z" fill="white"/>
<path d="M1.20455 9.36627V16.4033H2.00422V9.36627L2.524 9.88605L3.08377 9.32629L1.88427 8.12679C1.72433 7.96685 1.48443 7.96685 1.3245 8.12679L0.125 9.32629L0.684767 9.88605L1.20455 9.36627Z" fill="white"/>
<path d="M2.00377 17.6025H1.2041V19.2019H2.00377V17.6025Z" fill="white"/>
<path d="M22.7958 17.6025H21.9961V19.2019H22.7958V17.6025Z" fill="white"/>
<path d="M19.1971 9.60645H18.3975V11.2058H19.1971V9.60645Z" fill="white"/>
<path d="M5.6024 9.60645H4.80273V11.2058H5.6024V9.60645Z" fill="white"/>
<path d="M0.80455 21.6006H0.00488281V22.4003H0.80455V21.6006Z" fill="white"/>
<path d="M2.40416 21.6006H1.60449V22.4003H2.40416V21.6006Z" fill="white"/>
<path d="M4.00279 21.6006H3.20312V22.4003H4.00279V21.6006Z" fill="white"/>
<path d="M5.6024 21.6006H4.80273V22.4003H5.6024V21.6006Z" fill="white"/>
<path d="M7.20201 21.6006H6.40234V22.4003H7.20201V21.6006Z" fill="white"/>
<path d="M19.1971 21.6006H18.3975V22.4003H19.1971V21.6006Z" fill="white"/>
<path d="M17.5975 21.6006H16.7979V22.4003H17.5975V21.6006Z" fill="white"/>
<path d="M20.7958 21.6006H19.9961V22.4003H20.7958V21.6006Z" fill="white"/>
<path d="M22.3954 21.6006H21.5957V22.4003H22.3954V21.6006Z" fill="white"/>
<path d="M23.995 21.6006H23.1953V22.4003H23.995V21.6006Z" fill="white"/>
<path d="M14.3989 20.2815V18.8022H19.1969C19.3568 18.8022 19.4768 18.7222 19.5567 18.6022C19.6367 18.4823 19.6367 18.3224 19.5567 18.2024L14.3989 8.68638V4.44815C14.3989 4.36818 14.3989 4.28821 14.3589 4.20825L12.3597 0.209913C12.1998 -0.0699708 11.76 -0.0699708 11.64 0.209913L9.64087 4.20825C9.5609 4.28821 9.5609 4.40816 9.60088 4.52811V8.68638L4.44303 18.2024C4.36307 18.3224 4.36307 18.4823 4.44303 18.6022C4.523 18.7222 4.64295 18.8022 4.80288 18.8022H9.60088V20.2815L7.76165 23.2003H0.00488281V24H23.9949V23.2003H16.2381L14.3989 20.2815ZM13.5992 8.80633V18.4023H12.3997V4.808H13.5992V8.80633ZM11.6001 18.4023H10.4006V8.80633V4.808H11.6001V18.4023ZM10.4006 19.202H13.5992V20.0017H10.4006V19.202ZM18.5168 18.0025H14.3985V16.803H16.3977V16.0033H14.3985V10.3657L18.5168 18.0025ZM11.9999 1.28946L13.3593 4.00833H10.6405L11.9999 1.28946ZM5.4826 18.0025L9.60088 10.3657V16.0033H7.60172V16.803H9.60088V18.0025H5.4826ZM10.2006 20.8013H13.7592L15.2785 23.2003H12.3997V21.601H11.6001V23.2003H8.72125L10.2006 20.8013Z" fill="white"/>
</g>
<defs>
<clipPath id="clip0_1525_345">
<rect width="24" height="24" fill="white"/>
</clipPath>
</defs>
</svg>
