<svg width="18" height="18" viewBox="0 0 18 18" fill="none" xmlns="http://www.w3.org/2000/svg">
<path d="M3.75195 15C3.75195 15.8273 4.4247 16.5 5.25195 16.5H12.752C13.5792 16.5 14.252 15.8273 14.252 15V6H15.752V4.5H12.752V3C12.752 2.17275 12.0792 1.5 11.252 1.5H6.75195C5.9247 1.5 5.25195 2.17275 5.25195 3V4.5H2.25195V6H3.75195V15ZM6.75195 3H11.252V4.5H6.75195V3ZM6.00195 6H12.752L12.7527 15H5.25195V6H6.00195Z" fill="black"/>
<path d="M6.75195 7.5H8.25195V13.5H6.75195V7.5ZM9.75195 7.5H11.252V13.5H9.75195V7.5Z" fill="black"/>
</svg>
