<svg width="70" height="70" viewBox="0 0 70 70" fill="none" xmlns="http://www.w3.org/2000/svg">
<path d="M44.2898 50.0518L42.5107 48.2738L44.2888 46.4958C44.6308 46.1548 44.6308 45.5998 44.2888 45.2588C43.9468 44.9148 43.3938 44.9158 43.0518 45.2578L41.2727 47.0358L39.4937 45.2558C39.1517 44.9138 38.5978 44.9158 38.2558 45.2558C37.9148 45.5978 37.9148 46.1528 38.2558 46.4938L40.0357 48.2738L38.2598 50.0488C37.9178 50.3908 37.9178 50.9458 38.2598 51.2858C38.4308 51.4578 38.6537 51.5428 38.8777 51.5428C39.1027 51.5428 39.3257 51.4578 39.4967 51.2868L41.2727 49.5108L43.0528 51.2898C43.2238 51.4608 43.4468 51.5458 43.6708 51.5458C43.8948 51.5458 44.1188 51.4598 44.2898 51.2898C44.6318 50.9478 44.6318 50.3938 44.2898 50.0518Z" fill="#19519D"/>
<path d="M37.1875 24.0625H24.0625C22.322 24.0625 20.6528 24.7539 19.4221 25.9846C18.1914 27.2153 17.5 28.8845 17.5 30.625V39.375H21.875V30.625C21.875 30.0448 22.1055 29.4884 22.5157 29.0782C22.9259 28.668 23.4823 28.4375 24.0625 28.4375H37.1875C37.7677 28.4375 38.3241 28.668 38.7343 29.0782C39.1445 29.4884 39.375 30.0448 39.375 30.625V32.8125H43.75V30.625C43.75 28.8845 43.0586 27.2153 41.8279 25.9846C40.5972 24.7539 38.928 24.0625 37.1875 24.0625Z" fill="#19519D"/>
<path d="M21.875 13.125C21.875 14.8556 22.3882 16.5473 23.3496 17.9862C24.3111 19.4252 25.6777 20.5467 27.2765 21.2089C28.8754 21.8712 30.6347 22.0445 32.332 21.7069C34.0294 21.3693 35.5885 20.5359 36.8122 19.3122C38.0359 18.0885 38.8693 16.5294 39.2069 14.832C39.5445 13.1347 39.3712 11.3754 38.7089 9.77652C38.0467 8.17767 36.9252 6.8111 35.4862 5.84964C34.0473 4.88818 32.3556 4.375 30.625 4.375C28.3044 4.375 26.0788 5.29687 24.4378 6.93782C22.7969 8.57876 21.875 10.8044 21.875 13.125ZM35 13.125C35 13.9903 34.7434 14.8362 34.2627 15.5556C33.7819 16.2751 33.0987 16.8358 32.2992 17.167C31.4998 17.4981 30.6201 17.5847 29.7715 17.4159C28.9228 17.2471 28.1433 16.8304 27.5314 16.2186C26.9196 15.6067 26.5029 14.8272 26.3341 13.9785C26.1653 13.1299 26.2519 12.2502 26.583 11.4508C26.9142 10.6513 27.4749 9.96805 28.1944 9.48732C28.9138 9.00659 29.7597 8.75 30.625 8.75C31.7853 8.75 32.8981 9.21094 33.7186 10.0314C34.5391 10.8519 35 11.9647 35 13.125Z" fill="#19519D"/>
<path d="M48.125 59.0625H35C33.8401 59.0613 32.728 58.6 31.9078 57.7797C31.0875 56.9595 30.6262 55.8474 30.625 54.6875V41.5625C30.6262 40.4026 31.0875 39.2905 31.9078 38.4703C32.728 37.65 33.8401 37.1887 35 37.1875H48.125C49.2849 37.1887 50.397 37.65 51.2172 38.4703C52.0375 39.2905 52.4988 40.4026 52.5 41.5625V54.6875C52.4988 55.8474 52.0375 56.9595 51.2172 57.7797C50.397 58.6 49.2849 59.0613 48.125 59.0625ZM35 41.5625V54.6875H48.125V41.5625H35Z" fill="#19519D"/>
<path d="M17.5 65.625H8.75C7.59005 65.6238 6.47796 65.1625 5.65775 64.3422C4.83754 63.522 4.37622 62.41 4.375 61.25V8.75C4.37622 7.59005 4.83754 6.47796 5.65775 5.65775C6.47796 4.83754 7.59005 4.37622 8.75 4.375H17.5V8.75H8.75V61.25H17.5V65.625Z" fill="#19519D"/>
<path d="M61.25 65.625H52.5V61.25H61.25V8.75H52.5V4.375H61.25C62.4099 4.37622 63.522 4.83754 64.3422 5.65775C65.1625 6.47796 65.6238 7.59005 65.625 8.75V61.25C65.6238 62.41 65.1625 63.522 64.3422 64.3422C63.522 65.1625 62.4099 65.6238 61.25 65.625Z" fill="#19519D"/>
</svg>
